<?xml version="1.0" encoding="UTF-8"?>
<svg id="Layer_1" data-name="Layer 1" xmlns="http://www.w3.org/2000/svg" viewBox="0 0 3000 2000">
  <defs>
    <style>
      .cls-1 {
        fill: #f7c7d9;
        stroke-width: 0px;
      }
    </style>
  </defs>
  <path class="cls-1" d="M1190.93,56.34c-154.37-46.59-289.14-49.34-443.51,0v1675.35c82.95,53.67,161.14,87.45,217.24,108.23,54.45,20.17,110.01,40.38,188.25,50.96,70.99,9.6,124.42,6.38,199.32,1.46,170.44-11.2,209.74-38.5,328.63-27.38,50.6,4.73,91.72,13.68,113.88,20,93.23,26.57,120.65,52.15,194.9,79.24,96.94,35.38,187,37.34,235.12,35.19,40.57-1.81,98.82-8.52,166.23-31.02,46.89-24.47,125.92-59.51,228.24-73.12,211.52-28.14,285.81,66.76,475.25,27.42,138.76-28.82,264.18-114.06,281.01-125.68,90.63-62.59,135.41-121.3,217.3-124.53,64.37-2.55,118.57,30.49,154.64,59.22V56.34c-67.63,16.13-126.04,23.53-171.07,27.09-46.11,3.64-82.32,3.58-113.89,3.45-91.19-.36-138.17-7.13-168.05-8.02-194.36-5.83-270.2,215.63-438.4,189.6-42.82-6.63-81.33-27.77-147.87-64.31-14.6-8.02-27.32-17.3-52.12-31.38,0,0-48.77-27.69-101.14-50.57-151-65.97-330.13-84.62-330.13-84.62-140.96-14.68-249.31-.02-313.63,9.05-77.59,10.94-142.74,26.72-192.14,40.91-245.07,41.49-314.9,33.12-528.05-31.21Z"/>
  <path class="cls-1" d="M-1809.07,56.34c-154.37-46.59-289.14-49.34-443.51,0v1675.35c82.95,53.67,161.14,87.45,217.24,108.23,54.45,20.17,110.01,40.38,188.25,50.96,70.99,9.6,124.42,6.38,199.32,1.46,170.44-11.2,209.74-38.5,328.63-27.38,50.6,4.73,91.72,13.68,113.88,20,93.23,26.57,120.65,52.15,194.9,79.24,96.94,35.38,187,37.34,235.12,35.19,40.57-1.81,98.82-8.52,166.23-31.02,46.89-24.47,125.92-59.51,228.24-73.12,211.52-28.14,285.81,66.76,475.25,27.42,138.76-28.82,264.18-114.06,281.01-125.68,90.63-62.59,135.41-121.3,217.3-124.53,64.37-2.55,118.57,30.49,154.64,59.22V56.34c-67.63,16.13-126.04,23.53-171.07,27.09-46.11,3.64-82.32,3.58-113.89,3.45-91.19-.36-138.17-7.13-168.05-8.02-194.36-5.83-270.2,215.63-438.4,189.6-42.82-6.63-81.33-27.77-147.87-64.31-71.75-39.4-97.38-66.61-137.08-92.61-83.13-54.44-170.95-59.83-346.31-73.96-136.33-10.99-246.37-.44-313.63,9.05-77.59,10.94-142.74,26.72-192.14,40.91-245.07,41.49-314.9,33.12-528.05-31.21Z"/>
</svg>