<?xml version="1.0" encoding="UTF-8"?>
<svg id="Layer_1" data-name="Layer 1" xmlns="http://www.w3.org/2000/svg" viewBox="0 0 3000 2000">
  <defs>
    <style>
      .cls-1 {
        fill: #f7c7d9;
        stroke-width: 0px;
      }
    </style>
  </defs>
  <path class="cls-1" d="M-224.13,87.55c-49.4-14.19-114.56-29.98-192.14-40.91-64.32-9.07-172.67-23.72-313.63-9.05,0,0-179.13,18.65-330.13,84.62-52.37,22.88-101.14,50.57-101.14,50.57-24.8,14.08-37.52,23.37-52.12,31.38-66.54,36.54-105.05,57.68-147.87,64.31-168.2,26.03-244.04-195.44-438.4-189.6-29.88.9-76.86,7.66-168.05,8.02-31.58.13-67.78.19-113.89-3.45-45.03-3.56-103.44-10.96-171.07-27.09v1675.35c36.07-28.73,90.27-61.76,154.64-59.22,81.89,3.24,126.67,61.94,217.3,124.53,16.82,11.62,142.24,96.86,281.01,125.68,189.44,39.34,263.73-55.56,475.25-27.42,102.33,13.61,181.36,48.65,228.24,73.12,67.41,22.5,125.67,29.21,166.23,31.02,48.11,2.15,138.17.19,235.12-35.19,74.25-27.09,101.67-52.67,194.9-79.24,22.16-6.32,63.28-15.27,113.88-20,118.89-11.12,158.2,16.18,328.63,27.38,74.9,4.92,128.33,8.14,199.32-1.46,78.24-10.58,133.8-30.79,188.25-50.96,56.11-20.78,134.29-54.57,217.24-108.23V56.34c-154.37-49.34-289.14-46.59-443.51,0C90.78,120.67,20.95,129.04-224.13,87.55Z"/>
  <path class="cls-1" d="M2775.87,87.55c-49.4-14.19-114.56-29.98-192.14-40.91-67.27-9.48-177.31-20.04-313.63-9.05-175.36,14.13-263.18,19.52-346.31,73.96-39.7,26-65.33,53.21-137.08,92.61-66.54,36.54-105.05,57.68-147.87,64.31-168.2,26.03-244.04-195.44-438.4-189.6-29.88.9-76.86,7.66-168.05,8.02-31.58.13-67.78.19-113.89-3.45-45.03-3.56-103.44-10.96-171.07-27.09v1675.35c36.07-28.73,90.27-61.76,154.64-59.22,81.89,3.24,126.67,61.94,217.3,124.53,16.82,11.62,142.24,96.86,281.01,125.68,189.43,39.34,263.73-55.56,475.25-27.42,102.33,13.61,181.36,48.65,228.24,73.12,67.41,22.5,125.67,29.21,166.23,31.02,48.11,2.15,138.17.19,235.12-35.19,74.25-27.09,101.67-52.67,194.9-79.24,22.16-6.32,63.28-15.27,113.88-20,118.89-11.12,158.2,16.18,328.63,27.38,74.9,4.92,128.33,8.14,199.32-1.46,78.24-10.58,133.8-30.79,188.25-50.96,56.11-20.78,134.29-54.57,217.24-108.23V56.34c-154.37-49.34-289.14-46.59-443.51,0-213.14,64.33-282.97,72.69-528.05,31.21Z"/>
</svg>