<?xml version="1.0" encoding="UTF-8"?>
<svg xmlns="http://www.w3.org/2000/svg" viewBox="0 0 1824.57 600">
  <defs>
    <style>
      .cls-1 {
        fill: #273aaa;
        stroke-width: 0px;
      }

      .cls-2 {
        fill: none;
        stroke: #273aaa;
        stroke-miterlimit: 10;
      }
    </style>
  </defs>
  <g id="Layer_5" data-name="Layer 5">
    <path class="cls-1" d="M770.46,97.96c-4.71,5.18-10.39,5.24-20.56,8.2-5.4,1.57-10.55,3.82-20.83,8.32-5.94,2.6-26.39,11.54-40.58,27.6-10.83,12.26-14.56,24.75-18.94,40.04-14.27,49.84,2.98,62.61-12.99,93.07-3.38,6.46-11.63,18.19-28.14,41.66-8.56,12.18-14.62,20.35-15.31,32.49-.62,10.97,3.46,19.34,6.96,26.27,4.12,8.19,18.27,36.71,49.78,46.62,26.55,8.35,51.06-.86,71.96-8.71,33.96-12.76,33.26-24.28,60.6-31.25,30.56-7.79,58.54-.3,73.05,3.59,37.89,10.15,42.86,25.04,76.29,27.15,23.33,1.47,40.38-5.01,44.37-6.66,9.2-3.81,13.44-7.43,18.94-10.76,5.77-3.5,33.93-14.1,66.99-10.3,66.88,7.7,107.72,67.26,177.19,68.15,52.36.67,58.48-32.8,129.6-31.24,24.19.53,50.77,1.12,78.73,16.59,39.77,22,41.62,51.56,77.37,60.37,20.73,5.11,22.62-4.21,62.48-3.81,19.66.2,48.5.49,77.71,12.95,35.22,15.03,38.24,33.79,81.71,62.35,23,15.11,43.89,24.14,57.71,29.35-608.19.88-1216.38,1.77-1824.57,2.65,22.75-50.49,51.07-77.19,72.38-92.19,35.25-24.81,54.55-19.85,77.71-48,25.55-31.05,14.46-52.14,43.43-80,22.72-21.85,50.4-28.93,59.43-31.24,15.14-3.87,33.2-4.11,69.33-4.57,35.24-.45,35.59,1.2,51.81-.76,12.92-1.56,46.72-6.78,64.72-27.66.97-1.13,1.77-2.17,1.77-2.17,3.42-4.67,8.57-15.21,9.6-44.46,1.29-36.63-2.51-43.71-.4-76.36.94-14.59,1.65-24.69,5.27-37.97,3.49-12.77,5.77-14.21,6.68-23.88.95-10.13-.83-16.35,1.61-29.68,0,0,.76-5.28,2.5-10.36,7.16-20.9,21.85-34.39,35.71-47.14,1.07-.99,12.44-9.37,35.17-26.13,18.56-13.69,23.18-16.99,31.38-18.96,11.97-2.87,18.01.38,36.25,2.56,30.71,3.68,31.9-3.33,53.03,0,20.81,3.28,16.96,9.64,60.6,28.18,22.82,9.69,32.95,11.8,44.37,23.57,4.39,4.52,15.06,15.83,13.53,29.72-.24,2.15-.96,7.91-5.41,12.81Z"/>
    <path class="cls-2" d="M659.27,260.57c-.89,19.17-6.35,32.14-11.36,40.58-9.01,15.17-18.45,18.88-24.61,35.57-4.98,13.48-4.09,25.32-3.74,29.42,2.57,29.79,24.46,48.41,29.87,52.76"/>
    <path class="cls-2" d="M739.65,433.5c1.19-7.32,5.66-28.49,24.89-44.06,21.19-17.16,46.52-16.35,61.14-15.88,30.51.97,52.84,13.56,63.31,20.49"/>
    <path class="cls-2" d="M954.83,426c8.09-6.62,17.67-13.68,28.8-20.62,8.41-5.24,21.6-13.5,34.69-18.38,29.37-10.96,57.2-4.62,74.1-.77,32.87,7.48,56.4,23.36,69.81,34.23"/>
    <path class="cls-2" d="M459.88,166.11c-5.16,4.7-12.44,87.14-14.58,97.81-1.43,7.16,1.18,22.41.61,33.43-.34,6.57-3.01,15.62-10.15,22.29-4.13,3.86-4.9,6.82-14.27,14.47"/>
    <path class="cls-2" d="M1308.53,442.98c12.32-8.15,37.78-22.4,72.4-23.95,27.89-1.24,49.02,6.42,59.68,10.41,51.56,19.27,47.26,45.99,87.53,55.56,10.63,2.53,34.48,3.05,82.19,4.11,5.64.12,19.37.38,35.48,6.68,10.31,4.03,18.02,9.14,22.9,12.81"/>
    <path class="cls-2" d="M355.05,355.03c-12.13-6.1-29.89-12.77-51.81-13.71-15.44-.66-27.37,1.76-33.52,3.05-7.62,1.6-14.54,3.68-47.99,18.3-21.74,9.5-32.67,14.31-35.82,17.51-5.15,5.24-17.73,20.97-12.19,58.67"/>
  </g>
  <g id="Layer_7_copy_2" data-name="Layer 7 copy 2">
    <path class="cls-1" d="M866.44,398.98c-.33-4.27-.08-8.48-.41-12.7-.59-11.22-4.64-21.82-13.85-28.55-10.47-8.31-23.23-11.39-36.34-10.53-12.42.5-24.73,2.13-36.9,4.81-17.69,3.25-74.95,20.39-88.29,13.49-15.54-8.41-19.93-33.14-9.91-47.27,7.91-11.46,23.08-16.25,36.51-13.45,2.31.49,4.66,1.36,6.77,2.46,3.1,1.59,4.56,2.87,7.45,3.14,6.05.5,12.07-2.82,16.02-7.29,3.86-4.64,5.74-11.81,6.49-17.95-.2-5.64,2.47-11.13,7.17-14.49,2.51-1.71,5.18-3.7,6.7-6.35,1.29-1.97,2.74-4.55,2.26-6.74-.21-2.03-3.15-4.72-4.44-6.3,0,0,2.75-3.51,2.75-3.51,2.18-2.85,3.36-5.54,2.99-8.64-.29-1.77-1.08-3.01-1.38-5.45-.89-10.91,9.62-18.15,18.77-20.98.2-.05.12-.14-.46.4-.36.32-.67.84-.84,1.29-.19.49-.25,1-.23,1.43.07.92.35,1.25.38,1.3.06.04-.38-.49-.92-.97-3.88-3.21-8.6-7.31-12.39-10.51-3.29-2.5-6.56-5.25-8.77-8.74-2.3-3.49-3.91-7.29-5.08-11.21-2.22-7.66-3.51-15.28-2.95-23.07.53-11.16,1.65-22.08,2.54-33.11,1.24-10.84-1.39-21.34-8.25-30.13,0,0,.75-.66.75-.66,12.93,12.98,12.51,25.06,12.35,42,.21,10.58-.73,21.78.98,32.08,1.27,5.19,2.58,10.09,4.83,14.77,1.72,3.46,4.02,6.56,7.21,8.69,3.85,2.69,7.61,5.87,11.08,8.63,3.27,2.83,8.1,5.06,8.63,10.48.29,3.24-2.29,6.13-4.86,7.01-1.37.54-2.63.93-3.79,1.44-3.03,1.21-7.82,5.09-8.24,7.7-.21,1.14-.05.92.4,2.48,2.59,6.83.09,15.06-4.5,20.4,0,0-.08-6.73-.08-6.73,6.39,7.62,4.41,16.56-1.35,23.77-1.52,2.04-3.6,4.03-5.65,5.44-2.64,1.81-5.13,3.06-5.91,6.21-.42,6.66-2.35,13.61-5.38,19.71-5.13,9.89-16.59,16.82-27.87,15.15-5.86-.77-9.52-5.51-14.77-6.87-11.06-3.2-24.59.03-31.78,9.45-8.55,11.28-6.44,28.88,3.4,38.71,4.67,4.67,10.14,4.84,16.4,3.97,33.48-5.45,64.75-21.88,99.03-23.82,21.7-1.82,39.67-.32,55.91,15.89,9.93,10.24,11.62,23.91,9.6,37.43-.27,2.11-.63,4.21-.78,6.27l-1,.03h0Z"/>
    <path class="cls-1" d="M776.83,240.89c-.27,4.41-2.45,7.89-4.29,10.17.95,1.13,2.29,3.05,2.71,5.65.71,4.38-1.57,7.95-3.17,10.39-2.14,3.27-4.15,4.85-6,6.14-2.45-.67-4.44-1.81-5.29-2.29-9.11-5.23-10.27-15.74-10.39-16.94,5.17-1.21,8.41-3.32,10.39-4.96,4.06-3.39,4.35-6.14,8.36-8.36.22-.12,4.18-2.27,7.61-2.08.09.68.12,1.43.06,2.3Z"/>
    <path class="cls-1" d="M702.51,182.16c.27-.5.53-1.01.8-1.51,4.43-8.05,9.58-13.49,13.21-16.78,8.11-7.37,15.72-10.47,21.23-12.65,11.83-4.68,15.56-2.77,16.94-1.81,1.56,1.08,2.44,2.54,2.94,3.61.13,1.78.03,4.36-1.58,6.33-3.01,3.69-8.93,2.35-16.04,3.16-4.28.49-10.41,1.93-17.62,6.33"/>
    <g>
      <path class="cls-1" d="M712.68,188.26c5.32-9.4,16.7-13.99,27.14-13.27,3.51.31,6.99,1.15,10.13,3.11-3.41,1.4-6.52,2.26-9.56,3.16-8.83,2.33-18.58,5.48-27.71,7.01h0Z"/>
      <ellipse class="cls-1" cx="726.42" cy="188.26" rx="9.17" ry="8.17"/>
    </g>
  </g>
</svg>