<svg width="41" height="46" viewBox="0 0 41 46" fill="none" xmlns="http://www.w3.org/2000/svg">
<path d="M40.1876 22.9999C40.192 23.6664 40.0167 24.318 39.6859 24.864C39.3551 25.4101 38.8853 25.8235 38.3419 26.0468L27.1903 30.7329L23.1368 43.6171C22.937 44.2391 22.5773 44.7755 22.1059 45.1543C21.6346 45.5331 21.0742 45.7361 20.5001 45.7361C19.9259 45.7361 19.3655 45.5331 18.8942 45.1543C18.4229 44.7755 18.0631 44.2391 17.8633 43.6171L13.8098 30.7308L2.65825 26.0468C2.12001 25.8159 1.6558 25.4002 1.32798 24.8556C1.00017 24.3109 0.824463 23.6633 0.824463 22.9999C0.824463 22.3365 1.00017 21.6889 1.32798 21.1443C1.6558 20.5996 2.12001 20.1839 2.65825 19.953L13.8098 15.269L17.8633 2.38272C18.0631 1.76074 18.4229 1.22432 18.8942 0.845518C19.3655 0.466713 19.9259 0.263672 20.5001 0.263672C21.0742 0.263672 21.6346 0.466713 22.1059 0.845518C22.5773 1.22432 22.937 1.76074 23.1368 2.38272L27.192 15.269L38.3419 19.953C38.8853 20.1763 39.3551 20.5897 39.6859 21.1358C40.0167 21.6818 40.192 22.3334 40.1876 22.9999Z" fill="#273AAA"/>
</svg>
